<svg width="227" height="52" viewBox="0 0 227 52" fill="none" xmlns="http://www.w3.org/2000/svg">
<g clip-path="url(#clip0_42_262)">
<path d="M0 32.7272V0.651367H2.88802V32.7272H0Z" fill="white"/>
<path d="M32.3686 9.8104C32.3686 15.2959 28.7362 18.3638 24.2184 18.9678C22.7744 19.1532 21.5177 19.1532 19.8864 19.1532H13.8783V32.7272H10.9902V0.651367H19.8864C21.5161 0.651367 22.7744 0.651367 24.2184 0.836721C29.0628 1.48706 32.3686 4.36963 32.3686 9.8088V9.8104ZM29.2485 9.8104C29.2485 5.71983 26.9192 3.81357 23.9863 3.34858C22.9153 3.16323 21.657 3.11689 20.1201 3.11689H13.8799V16.6893H20.1201C21.657 16.6893 22.9153 16.6429 23.9863 16.4576C26.9208 15.9926 29.2485 14.04 29.2485 9.8104Z" fill="white"/>
<path d="M58.8682 9.8104C58.8682 15.2959 55.2358 18.3638 50.7181 18.9678C49.2741 19.1532 48.0174 19.1532 46.3861 19.1532H40.3779V32.7272H37.4899V0.651367H46.3861C48.0158 0.651367 49.2741 0.651367 50.7181 0.836721C55.5624 1.48706 58.8682 4.36963 58.8682 9.8088V9.8104ZM55.7481 9.8104C55.7481 5.71983 53.4188 3.81357 50.4859 3.34858C49.4149 3.16323 48.1566 3.11689 46.6198 3.11689H40.3795V16.6893H46.6198C48.1566 16.6893 49.4149 16.6429 50.4859 16.4576C53.4204 15.9926 55.7481 14.04 55.7481 9.8104Z" fill="white"/>
<path d="M130.917 32.7272H122.394L116.898 6.0442L111.123 32.7272H102.554L94.4963 0.651367H101.436L106.839 27.7993L112.519 1.11635H121.555L127.051 27.892L132.827 0.651367H139.44L130.917 32.7272Z" fill="white"/>
<path d="M166.591 32.7272H143.397V0.651367H166.125V5.6719H149.825V14.1327H164.962V19.1995H149.825V27.6603H166.591V32.7272Z" fill="white"/>
<path d="M197.05 23.1511C197.05 29.1016 192.532 31.9378 188.248 32.5418C186.618 32.7272 185.594 32.7272 183.777 32.7272H172.087V0.651367H183.591C185.221 0.651367 186.153 0.651367 187.736 0.836721C192.952 1.48706 195.84 4.50864 195.84 8.8325C195.84 12.1321 194.069 14.318 190.856 15.4333C195.001 16.5023 197.05 19.0126 197.05 23.1495V23.1511ZM178.513 13.8083H183.357C184.148 13.8083 184.894 13.762 185.64 13.6693C187.97 13.297 189.133 11.9963 189.133 9.67139C189.133 7.34647 187.643 6.09214 185.501 5.81251C184.757 5.71983 183.918 5.6735 183.172 5.6735H178.515V13.8083H178.513ZM190.296 23.199C190.296 20.2238 188.479 18.9678 186.151 18.7361C185.359 18.6435 184.614 18.5971 183.868 18.5971H178.511V27.6619H184.1C184.845 27.6619 185.637 27.6619 186.242 27.6156C188.477 27.4302 190.294 25.8946 190.294 23.199H190.296Z" fill="white"/>
<path d="M225.941 23.4766C225.941 29.5198 220.726 33.3787 213.505 33.3787C206.285 33.3787 201.723 29.9848 201.023 23.3376L200.977 22.8726H207.404L207.497 23.3376C207.963 26.5909 210.198 28.5899 213.459 28.5899C216.72 28.5899 219.141 26.6372 219.141 23.7083C219.141 20.5014 216.952 18.7805 212.759 18.6878H211.688V14.2249L212.759 14.1786C216.16 14.0396 218.395 12.1333 218.395 9.11172C218.395 6.50878 216.67 4.78786 213.83 4.78786C210.99 4.78786 209.173 6.83315 208.847 9.85474L208.8 10.3197H202.419L202.466 9.85474C203.024 4.27654 207.03 -0.000976562 214.528 -0.000976562C221.515 -0.000976562 225.194 3.67095 225.194 8.36711C225.194 12.0854 223.098 14.7363 219.232 15.7589C223.564 16.7352 225.938 19.2918 225.938 23.475L225.941 23.4766Z" fill="white"/>
<path d="M83.4836 0.639189C77.5987 -1.88066 69.7399 3.2629 65.9314 12.1263C62.1244 20.9913 63.8086 30.2175 69.6935 32.7373C75.5784 35.2572 83.4372 30.1136 87.2457 21.2502C91.0527 12.3884 89.3685 3.16064 83.4836 0.639189ZM83.4708 19.411C80.0273 27.426 73.478 32.3155 68.845 30.3325C64.212 28.3496 63.2482 20.2435 66.6902 12.227C70.1337 4.21204 76.683 -0.67746 81.316 1.3055C85.949 3.28847 86.9143 11.3945 83.4708 19.411Z" fill="white"/>
<path d="M70.4235 12.5834C67.6715 18.1088 67.9805 23.8884 71.1199 25.4942C72.3734 26.135 73.8894 26.0135 75.4327 25.2817C73.4188 26.8444 71.3392 27.3605 69.7111 26.4529C66.5797 24.7097 66.3044 18.3613 69.0931 12.275C71.8835 6.19026 76.683 2.67493 79.8127 4.41822C80.261 4.66589 80.65 5.01103 80.9766 5.43447C77.8372 3.96122 73.1434 7.12662 70.4219 12.5834H70.4235Z" fill="white"/>
<path d="M227.102 44.5713H63.2623V45.4499H227.102V44.5713Z" fill="white"/>
<path d="M1.424 40.9409L2.688 44.5089L2.856 45.1489L3.016 44.5089L4.28 40.9409H5.576L3.576 46.3809H2.064L0.064 40.9409H1.424Z" fill="white"/>
<path d="M9.17111 46.3809V40.9409H10.4511V46.3809H9.17111Z" fill="white"/>
<path d="M15.2608 42.3409C15.2608 43.5009 18.4608 42.5169 18.4608 44.7409C18.4608 45.8609 17.5328 46.5089 16.2608 46.5089C14.9728 46.5089 14.0528 45.9169 13.8608 44.6769H15.2128C15.3168 45.2129 15.6928 45.5089 16.2688 45.5089C16.8448 45.5089 17.1488 45.2769 17.1488 44.9009C17.1488 43.6849 13.9408 44.6129 13.9408 42.4609C13.9408 41.5489 14.7008 40.8129 16.0368 40.8129C17.1648 40.8129 18.1408 41.3489 18.3088 42.6049H16.9408C16.8288 42.0689 16.5168 41.8129 15.9888 41.8129C15.5408 41.8129 15.2608 42.0209 15.2608 42.3409Z" fill="white"/>
<path d="M22.8159 46.3809V40.9409H24.0959V46.3809H22.8159Z" fill="white"/>
<path d="M29.1697 46.3809V41.9889H27.4817V40.9409H32.1457V41.9889H30.4577V46.3809H29.1697Z" fill="white"/>
<path d="M39.0127 46.5089C37.3247 46.5089 36.2847 45.4209 36.2847 43.6689C36.2847 41.9089 37.3247 40.8129 39.0127 40.8129C40.6927 40.8129 41.7327 41.9089 41.7327 43.6689C41.7327 45.4209 40.6927 46.5089 39.0127 46.5089ZM39.0127 45.4609C39.9007 45.4609 40.4207 44.7889 40.4207 43.6689C40.4207 42.5489 39.9007 41.8609 39.0127 41.8609C38.1167 41.8609 37.5967 42.5409 37.5967 43.6689C37.5967 44.7889 38.1167 45.4609 39.0127 45.4609Z" fill="white"/>
<path d="M46.3841 46.3809V40.9409H48.6081C49.8801 40.9409 50.6641 41.5809 50.6641 42.5889C50.6641 43.1889 50.4161 43.6049 49.9841 43.8609C50.2321 44.0449 50.3841 44.3169 50.4801 44.7169L50.8881 46.3809H49.5521L49.2481 44.9569C49.1441 44.4689 48.9761 44.3649 48.5121 44.3649H47.6641V46.3809H46.3841ZM48.5841 41.9569H47.6641V43.3729H48.5521C49.0881 43.3729 49.3441 43.0849 49.3441 42.6609C49.3441 42.2369 49.0801 41.9569 48.5841 41.9569Z" fill="white"/>
<path d="M56.1952 42.3409C56.1952 43.5009 59.3952 42.5169 59.3952 44.7409C59.3952 45.8609 58.4672 46.5089 57.1952 46.5089C55.9072 46.5089 54.9872 45.9169 54.7952 44.6769H56.1472C56.2512 45.2129 56.6272 45.5089 57.2032 45.5089C57.7792 45.5089 58.0832 45.2769 58.0832 44.9009C58.0832 43.6849 54.8752 44.6129 54.8752 42.4609C54.8752 41.5489 55.6352 40.8129 56.9712 40.8129C58.0992 40.8129 59.0752 41.3489 59.2432 42.6049H57.8752C57.7632 42.0689 57.4512 41.8129 56.9232 41.8129C56.4752 41.8129 56.1952 42.0209 56.1952 42.3409Z" fill="white"/>
</g>
<defs>
<clipPath id="clip0_42_262">
<rect width="227" height="52" fill="white"/>
</clipPath>
</defs>
</svg>
