<svg width="114" height="27" viewBox="0 0 114 27" fill="none" xmlns="http://www.w3.org/2000/svg">
<g clip-path="url(#clip0_47_766)">
<path d="M0 16.4671V0.328125H1.45037V16.4671H0Z" fill="#303030"/>
<path d="M16.2556 4.93652C16.2556 7.69657 14.4313 9.2402 12.1625 9.5441C11.4373 9.63737 10.8062 9.63737 9.98697 9.63737H6.96966V16.4671H5.51929V0.328125H9.98697C10.8054 0.328125 11.4373 0.328125 12.1625 0.421386C14.5954 0.748605 16.2556 2.19898 16.2556 4.93571V4.93652ZM14.6886 4.93652C14.6886 2.87834 13.5188 1.91919 12.046 1.68524C11.5081 1.59198 10.8762 1.56866 10.1044 1.56866H6.97046V8.39764H10.1044C10.8762 8.39764 11.5081 8.37432 12.046 8.28106C13.5196 8.0471 14.6886 7.06464 14.6886 4.93652Z" fill="#303030"/>
<path d="M29.5639 4.93652C29.5639 7.69657 27.7397 9.2402 25.4709 9.5441C24.7457 9.63737 24.1146 9.63737 23.2953 9.63737H20.278V16.4671H18.8276V0.328125H23.2953C24.1138 0.328125 24.7457 0.328125 25.4709 0.421386C27.9037 0.748605 29.5639 2.19898 29.5639 4.93571V4.93652ZM27.997 4.93652C27.997 2.87834 26.8272 1.91919 25.3543 1.68524C24.8164 1.59198 24.1845 1.56866 23.4127 1.56866H20.2788V8.39764H23.4127C24.1845 8.39764 24.8164 8.37432 25.3543 8.28106C26.828 8.0471 27.997 7.06464 27.997 4.93652Z" fill="#303030"/>
<path d="M65.7467 16.4671H61.4664L58.7063 3.04154L55.8064 16.4671H51.5027L47.4563 0.328125H50.9415L53.655 13.9877L56.5075 0.562082H61.0451L63.8051 14.0343L66.7059 0.328125H70.0271L65.7467 16.4671Z" fill="#1C7CF1"/>
<path d="M83.6627 16.4671H72.0146V0.328125H83.4287V2.85422H75.2426V7.11127H82.8442V9.66068H75.2426V13.9177H83.6627V16.4671Z" fill="#1C7CF1"/>
<path d="M98.959 11.6489C98.959 14.6429 96.6902 16.07 94.5387 16.3739C93.7203 16.4671 93.2058 16.4671 92.2932 16.4671H86.4226V0.328125H92.2C93.0184 0.328125 93.4863 0.328125 94.2815 0.421386C96.9008 0.748605 98.3512 2.26892 98.3512 4.44448C98.3512 6.10469 97.462 7.20453 95.8484 7.76571C97.9299 8.30357 98.959 9.56662 98.959 11.6481V11.6489ZM89.6498 6.94807H92.0826C92.4798 6.94807 92.8544 6.92475 93.2291 6.87812C94.3989 6.69079 94.9833 6.03636 94.9833 4.86657C94.9833 3.69679 94.2348 3.06566 93.1591 2.92497C92.7853 2.87834 92.364 2.85502 91.9893 2.85502H89.6506V6.94807H89.6498ZM95.567 11.673C95.567 10.176 94.6545 9.54411 93.4855 9.42753C93.0876 9.3809 92.7137 9.35758 92.3391 9.35758H89.649V13.9185H92.4556C92.8295 13.9185 93.2275 13.9185 93.5314 13.8952C94.6537 13.802 95.5662 13.0293 95.5662 11.673H95.567Z" fill="#1C7CF1"/>
<path d="M113.468 11.8128C113.468 14.8535 110.849 16.7951 107.223 16.7951C103.597 16.7951 101.306 15.0874 100.954 11.7429L100.931 11.5089H104.159L104.206 11.7429C104.44 13.3798 105.562 14.3856 107.2 14.3856C108.837 14.3856 110.053 13.4031 110.053 11.9294C110.053 10.3158 108.954 9.44994 106.848 9.40331H106.311V7.1578L106.848 7.13449C108.556 7.06454 109.678 6.1054 109.678 4.58508C109.678 3.2754 108.813 2.40952 107.386 2.40952C105.96 2.40952 105.048 3.43861 104.884 4.95893L104.86 5.19288H101.656L101.679 4.95893C101.959 2.15224 103.971 0 107.737 0C111.245 0 113.093 1.84754 113.093 4.21042C113.093 6.08128 112.04 7.41508 110.099 7.92962C112.274 8.42085 113.467 9.70721 113.467 11.812L113.468 11.8128Z" fill="#1C7CF1"/>
<path d="M41.9256 0.322101C38.9702 -0.945768 35.0234 1.64223 33.1108 6.10188C31.1989 10.5623 32.0447 15.2045 35.0001 16.4724C37.9555 17.7402 41.9023 15.1522 43.8149 10.6926C45.7268 6.23373 44.881 1.59077 41.9256 0.322101ZM41.9191 9.7672C40.1898 13.7999 36.9007 16.2601 34.574 15.2624C32.2473 14.2646 31.7633 10.1861 33.4919 6.15253C35.2212 2.11979 38.5103 -0.340374 40.837 0.657359C43.1637 1.65509 43.6485 5.73366 41.9191 9.7672Z" fill="#303030"/>
<path d="M35.3669 6.33202C33.9848 9.11217 34.14 12.0201 35.7166 12.8281C36.3461 13.1505 37.1075 13.0894 37.8825 12.7212C36.8711 13.5075 35.8267 13.7672 35.0091 13.3105C33.4365 12.4334 33.2982 9.23919 34.6988 6.17685C36.1001 3.11531 38.5104 1.34656 40.0822 2.2237C40.3073 2.34832 40.5026 2.52197 40.6667 2.73503C39.0901 1.99376 36.7328 3.58644 35.3661 6.33202H35.3669Z" fill="#1C7CF1"/>
<path d="M114.051 22.4268H31.7705V22.8688H114.051V22.4268Z" fill="#1C7CF1"/>
<path d="M0.887082 20.9227L1.67449 23.1454L1.77915 23.544L1.87882 23.1454L2.66623 20.9227H3.47357L2.22767 24.3115H1.28577L0.0398689 20.9227H0.887082Z" fill="#1C7CF1"/>
<path d="M4.6646 24.3115V20.9227H5.46197V24.3115H4.6646Z" fill="#1C7CF1"/>
<path d="M7.85923 21.7948C7.85923 22.5174 9.85267 21.9044 9.85267 23.2899C9.85267 23.9876 9.27457 24.3913 8.48218 24.3913C7.67982 24.3913 7.1067 24.0225 6.9871 23.25H7.82933C7.89411 23.5839 8.12834 23.7683 8.48716 23.7683C8.84598 23.7683 9.03536 23.6238 9.03536 23.3896C9.03536 22.632 7.03693 23.2101 7.03693 21.8696C7.03693 21.3014 7.51038 20.8429 8.34264 20.8429C9.04533 20.8429 9.65333 21.1768 9.75798 21.9593H8.90579C8.83601 21.6254 8.64165 21.4659 8.31274 21.4659C8.03365 21.4659 7.85923 21.5955 7.85923 21.7948Z" fill="#1C7CF1"/>
<path d="M11.5171 24.3115V20.9227H12.3145V24.3115H11.5171Z" fill="#1C7CF1"/>
<path d="M14.876 24.3115V21.5755H13.8244V20.9227H16.7299V21.5755H15.6783V24.3115H14.876Z" fill="#1C7CF1"/>
<path d="M19.9594 24.3913C18.9079 24.3913 18.26 23.7135 18.26 22.6221C18.26 21.5257 18.9079 20.8429 19.9594 20.8429C21.006 20.8429 21.6539 21.5257 21.6539 22.6221C21.6539 23.7135 21.006 24.3913 19.9594 24.3913ZM19.9594 23.7384C20.5126 23.7384 20.8366 23.3198 20.8366 22.6221C20.8366 21.9244 20.5126 21.4958 19.9594 21.4958C19.4013 21.4958 19.0773 21.9194 19.0773 22.6221C19.0773 23.3198 19.4013 23.7384 19.9594 23.7384Z" fill="#1C7CF1"/>
<path d="M23.3531 24.3115V20.9227H24.7385C25.5309 20.9227 26.0193 21.3214 26.0193 21.9493C26.0193 22.3231 25.8648 22.5822 25.5957 22.7417C25.7502 22.8563 25.8449 23.0258 25.9047 23.2749L26.1588 24.3115H25.3266L25.1372 23.4244C25.0724 23.1204 24.9678 23.0557 24.6787 23.0557H24.1504V24.3115H23.3531ZM24.7236 21.5556H24.1504V22.4377H24.7036C25.0375 22.4377 25.197 22.2583 25.197 21.9941C25.197 21.73 25.0325 21.5556 24.7236 21.5556Z" fill="#1C7CF1"/>
<path d="M28.4166 21.7948C28.4166 22.5174 30.41 21.9044 30.41 23.2899C30.41 23.9876 29.8319 24.3913 29.0396 24.3913C28.2372 24.3913 27.6641 24.0225 27.5445 23.25H28.3867C28.4515 23.5839 28.6857 23.7683 29.0445 23.7683C29.4034 23.7683 29.5927 23.6238 29.5927 23.3896C29.5927 22.632 27.5943 23.2101 27.5943 21.8696C27.5943 21.3014 28.0677 20.8429 28.9 20.8429C29.6027 20.8429 30.2107 21.1768 30.3154 21.9593H29.4632C29.3934 21.6254 29.199 21.4659 28.8701 21.4659C28.591 21.4659 28.4166 21.5955 28.4166 21.7948Z" fill="#1C7CF1"/>
</g>
<defs>
<clipPath id="clip0_47_766">
<rect width="114" height="26.1639" fill="white"/>
</clipPath>
</defs>
</svg>
