<svg width="18" height="18" viewBox="0 0 18 18" fill="none" xmlns="http://www.w3.org/2000/svg">
<g id="vuesax/outline/key">
<g id="key">
<path id="Vector" d="M4.63498 17.0629C4.55998 17.0629 4.47748 17.0554 4.40998 17.0479L2.78248 16.8229C2.00248 16.7179 1.29748 16.0204 1.17748 15.2254L0.95248 13.5829C0.87748 13.0579 1.10248 12.3754 1.47748 11.9929L4.76998 8.70043C4.23748 6.57043 4.85248 4.32043 6.41998 2.76793C8.84998 0.345431 12.8025 0.337931 15.24 2.76793C16.4175 3.94543 17.0625 5.51293 17.0625 7.17793C17.0625 8.84293 16.4175 10.4104 15.24 11.5879C13.665 13.1479 11.4225 13.7629 9.30748 13.2229L6.00748 16.5154C5.69248 16.8454 5.12998 17.0629 4.63498 17.0629ZM10.8225 2.07043C9.50998 2.07043 8.20498 2.56543 7.20748 3.56293C5.85748 4.90543 5.36998 6.87043 5.93248 8.70043C5.99248 8.90293 5.93998 9.11293 5.78998 9.26293L2.26498 12.7879C2.13748 12.9154 2.03248 13.2454 2.05498 13.4179L2.27998 15.0604C2.32498 15.3454 2.63248 15.6679 2.91748 15.7054L4.55248 15.9304C4.73248 15.9604 5.06248 15.8554 5.18998 15.7279L8.72998 12.1954C8.87998 12.0454 9.09748 12.0004 9.29248 12.0604C11.1 12.6304 13.0725 12.1429 14.4225 10.7929C15.3825 9.83293 15.915 8.54293 15.915 7.17793C15.915 5.80543 15.3825 4.52293 14.4225 3.56293C13.4475 2.57293 12.135 2.07043 10.8225 2.07043Z" fill="#989898"/>
<path id="Vector_2" d="M6.89244 15.4057C6.74994 15.4057 6.60744 15.3532 6.49494 15.2407L4.76994 13.5157C4.55244 13.2982 4.55244 12.9382 4.76994 12.7207C4.98744 12.5032 5.34744 12.5032 5.56494 12.7207L7.28994 14.4457C7.50744 14.6632 7.50744 15.0232 7.28994 15.2407C7.17744 15.3532 7.03494 15.4057 6.89244 15.4057Z" fill="#989898"/>
<path id="Vector_3" d="M10.875 8.8125C9.945 8.8125 9.1875 8.055 9.1875 7.125C9.1875 6.195 9.945 5.4375 10.875 5.4375C11.805 5.4375 12.5625 6.195 12.5625 7.125C12.5625 8.055 11.805 8.8125 10.875 8.8125ZM10.875 6.5625C10.5675 6.5625 10.3125 6.8175 10.3125 7.125C10.3125 7.4325 10.5675 7.6875 10.875 7.6875C11.1825 7.6875 11.4375 7.4325 11.4375 7.125C11.4375 6.8175 11.1825 6.5625 10.875 6.5625Z" fill="#989898"/>
</g>
</g>
</svg>
