<svg width="42" height="43" viewBox="0 0 42 43" fill="none" xmlns="http://www.w3.org/2000/svg">
<rect x="0.5" y="0.5" width="41" height="42" rx="3.5" fill="white" stroke="#DCE0E6"/>
<path d="M13.5 20.3125C13.1925 20.3125 12.9375 20.0575 12.9375 19.75V17.875C12.9375 15.7 14.7075 13.9375 16.875 13.9375H18.75C19.0575 13.9375 19.3125 14.1925 19.3125 14.5C19.3125 14.8075 19.0575 15.0625 18.75 15.0625H16.875C15.3225 15.0625 14.0625 16.3225 14.0625 17.875V19.75C14.0625 20.0575 13.8075 20.3125 13.5 20.3125Z" fill="#989898"/>
<path d="M28.5 20.3125C28.1925 20.3125 27.9375 20.0575 27.9375 19.75V17.875C27.9375 16.3225 26.6775 15.0625 25.125 15.0625H23.25C22.9425 15.0625 22.6875 14.8075 22.6875 14.5C22.6875 14.1925 22.9425 13.9375 23.25 13.9375H25.125C27.2925 13.9375 29.0625 15.7 29.0625 17.875V19.75C29.0625 20.0575 28.8075 20.3125 28.5 20.3125Z" fill="#989898"/>
<path d="M25.125 30.0625H24C23.6925 30.0625 23.4375 29.8075 23.4375 29.5C23.4375 29.1925 23.6925 28.9375 24 28.9375H25.125C26.6775 28.9375 27.9375 27.6775 27.9375 26.125V25C27.9375 24.6925 28.1925 24.4375 28.5 24.4375C28.8075 24.4375 29.0625 24.6925 29.0625 25V26.125C29.0625 28.3 27.2925 30.0625 25.125 30.0625Z" fill="#989898"/>
<path d="M18.75 30.0625H16.875C14.7075 30.0625 12.9375 28.3 12.9375 26.125V24.25C12.9375 23.9425 13.1925 23.6875 13.5 23.6875C13.8075 23.6875 14.0625 23.9425 14.0625 24.25V26.125C14.0625 27.6775 15.3225 28.9375 16.875 28.9375H18.75C19.0575 28.9375 19.3125 29.1925 19.3125 29.5C19.3125 29.8075 19.0575 30.0625 18.75 30.0625Z" fill="#989898"/>
<path d="M22.5 26.6875H19.5C17.685 26.6875 16.6875 25.69 16.6875 23.875V20.125C16.6875 18.31 17.685 17.3125 19.5 17.3125H22.5C24.315 17.3125 25.3125 18.31 25.3125 20.125V23.875C25.3125 25.69 24.315 26.6875 22.5 26.6875ZM19.5 18.4375C18.315 18.4375 17.8125 18.94 17.8125 20.125V23.875C17.8125 25.06 18.315 25.5625 19.5 25.5625H22.5C23.685 25.5625 24.1875 25.06 24.1875 23.875V20.125C24.1875 18.94 23.685 18.4375 22.5 18.4375H19.5Z" fill="#989898"/>
<path d="M26.25 22.5625H15.75C15.4425 22.5625 15.1875 22.3075 15.1875 22C15.1875 21.6925 15.4425 21.4375 15.75 21.4375H26.25C26.5575 21.4375 26.8125 21.6925 26.8125 22C26.8125 22.3075 26.5575 22.5625 26.25 22.5625Z" fill="#989898"/>
</svg>
